<svg xmlns="http://www.w3.org/2000/svg" viewBox="118 152 258 166">
  <defs>
    <linearGradient id="g" x1="0%" y1="20%" x2="100%" y2="80%">
      <stop offset="0%" stop-color="#86e62a"/>
      <stop offset="55%" stop-color="#cfff73"/>
      <stop offset="100%" stop-color="#59bb1f"/>
    </linearGradient>
    <linearGradient id="shine" x1="0%" y1="0%" x2="0%" y2="100%">
      <stop offset="0%" stop-color="#ffffff" stop-opacity="0.55"/>
      <stop offset="55%" stop-color="#ffffff" stop-opacity="0.08"/>
      <stop offset="100%" stop-color="#ffffff" stop-opacity="0"/>
    </linearGradient>
    <filter id="shadow" x="-20%" y="-20%" width="140%" height="140%">
      <feDropShadow dx="0" dy="2" stdDeviation="2" flood-color="#245800" flood-opacity="0.35"/>
    </filter>
    <clipPath id="logoClip">
      <path d="M 264.0,299.5 L 151.0,317.5 L 149.5,316.0 L 150.5,310.0 L 152.5,306.0 L 152.5,301.0 L 154.5,297.0 L 154.5,292.0 L 174.5,204.0 L 179.0,189.5 L 222.0,189.5 L 223.5,191.0 L 221.5,204.0 L 203.5,274.0 L 204.0,276.5 L 217.0,275.5 L 249.0,269.5 L 263.0,264.5 L 278.0,255.5 L 316.5,217.0 L 343.5,181.0 L 357.0,157.5 L 365.0,161.5 L 372.5,169.0 L 375.5,176.0 L 374.5,188.0 L 368.5,206.0 L 356.5,230.0 L 332.5,262.0 L 324.0,270.5 L 307.0,283.5 L 289.0,292.5 L 264.0,299.5 Z M 254.0,259.5 L 252.5,259.0 L 252.5,257.0 L 267.5,240.0 L 287.5,212.0 L 299.5,191.0 L 303.5,181.0 L 302.0,179.5 L 151.0,178.5 L 118.0,154.5 L 117.5,152.0 L 328.0,151.5 L 347.0,154.5 L 346.5,160.0 L 333.5,182.0 L 309.5,213.0 L 277.0,245.5 L 268.0,252.5 L 254.0,259.5 Z" fill-rule="evenodd"/>
    </clipPath>
  </defs>
  <path d="M 264.0,299.5 L 151.0,317.5 L 149.5,316.0 L 150.5,310.0 L 152.5,306.0 L 152.5,301.0 L 154.5,297.0 L 154.5,292.0 L 174.5,204.0 L 179.0,189.5 L 222.0,189.5 L 223.5,191.0 L 221.5,204.0 L 203.5,274.0 L 204.0,276.5 L 217.0,275.5 L 249.0,269.5 L 263.0,264.5 L 278.0,255.5 L 316.5,217.0 L 343.5,181.0 L 357.0,157.5 L 365.0,161.5 L 372.5,169.0 L 375.5,176.0 L 374.5,188.0 L 368.5,206.0 L 356.5,230.0 L 332.5,262.0 L 324.0,270.5 L 307.0,283.5 L 289.0,292.5 L 264.0,299.5 Z M 254.0,259.5 L 252.5,259.0 L 252.5,257.0 L 267.5,240.0 L 287.5,212.0 L 299.5,191.0 L 303.5,181.0 L 302.0,179.5 L 151.0,178.5 L 118.0,154.5 L 117.5,152.0 L 328.0,151.5 L 347.0,154.5 L 346.5,160.0 L 333.5,182.0 L 309.5,213.0 L 277.0,245.5 L 268.0,252.5 L 254.0,259.5 Z" fill="url(#g)" fill-rule="evenodd" filter="url(#shadow)"/>
  <ellipse cx="248" cy="203" rx="92" ry="18" fill="url(#shine)" clip-path="url(#logoClip)"/>
</svg>